# SM_Cx_280p0_65p0_12p0  dims=(280.0, 65.0, 12.0) chamfer=0.25
o SM_Cx_280p0_65p0_12p0
v -140.00000 -32.25000 5.75000
v -140.00000 32.25000 5.75000
v -140.00000 32.25000 -5.75000
v -140.00000 -32.25000 -5.75000
v 140.00000 -32.25000 -5.75000
v 140.00000 32.25000 -5.75000
v 140.00000 32.25000 5.75000
v 140.00000 -32.25000 5.75000
v -139.75000 -32.50000 -5.75000
v 139.75000 -32.50000 -5.75000
v 139.75000 -32.50000 5.75000
v -139.75000 -32.50000 5.75000
v -139.75000 32.50000 5.75000
v 139.75000 32.50000 5.75000
v 139.75000 32.50000 -5.75000
v -139.75000 32.50000 -5.75000
v -139.75000 32.25000 -6.00000
v 139.75000 32.25000 -6.00000
v 139.75000 -32.25000 -6.00000
v -139.75000 -32.25000 -6.00000
v -139.75000 -32.25000 6.00000
v 139.75000 -32.25000 6.00000
v 139.75000 32.25000 6.00000
v -139.75000 32.25000 6.00000
v -139.75000 -32.50000 -5.75000
v -139.75000 -32.50000 5.75000
v -140.00000 -32.25000 5.75000
v -140.00000 -32.25000 -5.75000
v -140.00000 32.25000 -5.75000
v -140.00000 32.25000 5.75000
v -139.75000 32.50000 5.75000
v -139.75000 32.50000 -5.75000
v 140.00000 -32.25000 -5.75000
v 140.00000 -32.25000 5.75000
v 139.75000 -32.50000 5.75000
v 139.75000 -32.50000 -5.75000
v 139.75000 32.50000 -5.75000
v 139.75000 32.50000 5.75000
v 140.00000 32.25000 5.75000
v 140.00000 32.25000 -5.75000
v -140.00000 -32.25000 -5.75000
v -140.00000 32.25000 -5.75000
v -139.75000 32.25000 -6.00000
v -139.75000 -32.25000 -6.00000
v -139.75000 -32.25000 6.00000
v -139.75000 32.25000 6.00000
v -140.00000 32.25000 5.75000
v -140.00000 -32.25000 5.75000
v 139.75000 -32.25000 -6.00000
v 139.75000 32.25000 -6.00000
v 140.00000 32.25000 -5.75000
v 140.00000 -32.25000 -5.75000
v 140.00000 -32.25000 5.75000
v 140.00000 32.25000 5.75000
v 139.75000 32.25000 6.00000
v 139.75000 -32.25000 6.00000
v -139.75000 -32.25000 -6.00000
v 139.75000 -32.25000 -6.00000
v 139.75000 -32.50000 -5.75000
v -139.75000 -32.50000 -5.75000
v -139.75000 -32.50000 5.75000
v 139.75000 -32.50000 5.75000
v 139.75000 -32.25000 6.00000
v -139.75000 -32.25000 6.00000
v -139.75000 32.50000 -5.75000
v 139.75000 32.50000 -5.75000
v 139.75000 32.25000 -6.00000
v -139.75000 32.25000 -6.00000
v -139.75000 32.25000 6.00000
v 139.75000 32.25000 6.00000
v 139.75000 32.50000 5.75000
v -139.75000 32.50000 5.75000
v -139.75000 -32.25000 -6.00000
v -139.75000 -32.50000 -5.75000
v -140.00000 -32.25000 -5.75000
v -140.00000 -32.25000 5.75000
v -139.75000 -32.50000 5.75000
v -139.75000 -32.25000 6.00000
v -140.00000 32.25000 -5.75000
v -139.75000 32.50000 -5.75000
v -139.75000 32.25000 -6.00000
v -139.75000 32.25000 6.00000
v -139.75000 32.50000 5.75000
v -140.00000 32.25000 5.75000
v 140.00000 -32.25000 -5.75000
v 139.75000 -32.50000 -5.75000
v 139.75000 -32.25000 -6.00000
v 139.75000 -32.25000 6.00000
v 139.75000 -32.50000 5.75000
v 140.00000 -32.25000 5.75000
v 139.75000 32.25000 -6.00000
v 139.75000 32.50000 -5.75000
v 140.00000 32.25000 -5.75000
v 140.00000 32.25000 5.75000
v 139.75000 32.50000 5.75000
v 139.75000 32.25000 6.00000
vn -1.000000 0.000000 0.000000
vn 1.000000 0.000000 0.000000
vn 0.000000 -1.000000 0.000000
vn 0.000000 1.000000 0.000000
vn 0.000000 0.000000 -1.000000
vn 0.000000 0.000000 1.000000
vn -0.707107 -0.707107 0.000000
vn -0.707107 0.707107 0.000000
vn 0.707107 -0.707107 0.000000
vn 0.707107 0.707107 0.000000
vn -0.707107 0.000000 -0.707107
vn -0.707107 0.000000 0.707107
vn 0.707107 0.000000 -0.707107
vn 0.707107 0.000000 0.707107
vn 0.000000 -0.707107 -0.707107
vn 0.000000 -0.707107 0.707107
vn 0.000000 0.707107 -0.707107
vn 0.000000 0.707107 0.707107
vn -0.577350 -0.577350 -0.577350
vn -0.577350 -0.577350 0.577350
vn -0.577350 0.577350 -0.577350
vn -0.577350 0.577350 0.577350
vn 0.577350 -0.577350 -0.577350
vn 0.577350 -0.577350 0.577350
vn 0.577350 0.577350 -0.577350
vn 0.577350 0.577350 0.577350
f 1//1 2//1 3//1 4//1
f 5//2 6//2 7//2 8//2
f 9//3 10//3 11//3 12//3
f 13//4 14//4 15//4 16//4
f 17//5 18//5 19//5 20//5
f 21//6 22//6 23//6 24//6
f 25//7 26//7 27//7 28//7
f 29//8 30//8 31//8 32//8
f 33//9 34//9 35//9 36//9
f 37//10 38//10 39//10 40//10
f 41//11 42//11 43//11 44//11
f 45//12 46//12 47//12 48//12
f 49//13 50//13 51//13 52//13
f 53//14 54//14 55//14 56//14
f 57//15 58//15 59//15 60//15
f 61//16 62//16 63//16 64//16
f 65//17 66//17 67//17 68//17
f 69//18 70//18 71//18 72//18
f 73//19 74//19 75//19
f 76//20 77//20 78//20
f 79//21 80//21 81//21
f 82//22 83//22 84//22
f 85//23 86//23 87//23
f 88//24 89//24 90//24
f 91//25 92//25 93//25
f 94//26 95//26 96//26
